PathFileType	4	(X/Y/Z)	6_coords_data.trc
DataRate	CameraRate	NumFrames	NumMarkers	Units	OrigDataRate	OrigDataStartFrame	OrigNumFrames
30.0	30.0	6	21	m	30.0	29	77
Frame#	Time	THUMB_TIP	THUMB_IP	THUMB_MCP	THUMB_CMC	INDEX_TIP	INDEX_DIP	INDEX_PIP	INDEX_MCP	MIDDLE_TIP	MIDDLE_DIP	MIDDLE_PIP	MIDDLE_MCP	RING_TIP	RING_DIP	RING_PIP	RING_MCP	PINKY_TIP	PINKY_DIP	PINKY_PIP	PINKY_MCP	WRIST
X1	Y1	Z1	X2	Y2	Z2	X3	Y3	Z3	X4	Y4	Z4	X5	Y5	Z5	X6	Y6	Z6	X7	Y7	Z7	X8	Y8	Z8	X9	Y9	Z9	X10	Y10	Z10	X11	Y11	Z11	X12	Y12	Z12	X13	Y13	Z13	X14	Y14	Z14	X15	Y15	Z15	X16	Y16	Z16	X17	Y17	Z17	X18	Y18	Z18	X19	Y19	Z19	X20	Y20	Z20	X21	Y21	Z21
28	0.9333333333333333	0.01106820011138916	-0.15202200317382814	1.03102001953125	0.015785799980163575	-0.12358000183105469	1.028550048828125	0.005251490116119385	-0.09344490051269531	1.03831005859375	-0.001809689998626709	-0.052889198303222654	1.0484100341796876	0.001107769966125488	-0.06364400100708008	1.0180599975585938	0.01788800048828125	-0.0610078010559082	1.010489990234375	0.024097700119018555	-0.06281660079956054	0.986447021484375	-0.016523799896240234	-0.07014689636230469	0.98939697265625	0.010498200416564941	-0.0475093994140625	1.022030029296875	0.017335100173950194	-0.04428010177612305	1.015489990234375	0.022916500091552734	-0.04152629852294922	0.9869080200195313	-0.021701799392700196	-0.04603689956665039	0.9831079711914062	0.005678800106048584	-0.03138949966430664	1.0266500244140624	0.015119500160217285	-0.027801700592041016	1.020780029296875	0.023982400894165038	-0.022588699340820313	0.9962360229492188	-0.018051799774169923	-0.021587099075317383	0.987781005859375	0.002308379888534546	-0.01328969955444336	1.028280029296875	0.01632320022583008	-0.011708200454711914	1.0208900146484374	0.02111750030517578	-0.005876399993896484	1.0030700073242187	-0.00992848014831543	-0.000743920028209686	0.998875	-0.021930200576782227	-0.025970500946044923	1.0664200439453124
29	0.9666666666666667	0.011399700164794921	-0.15200599670410156	1.0310400390625	0.015934100151062013	-0.12344499969482423	1.0285899658203126	0.005315340042114257	-0.09343990325927734	1.0383199462890624	-0.0018962999582290648	-0.0528931999206543	1.048510009765625	0.001354030013084411	-0.06363059997558594	1.0181599731445312	0.017975099563598634	-0.060979000091552736	1.0106400146484376	0.024180099487304686	-0.0626531982421875	0.9865280151367187	-0.016380599975585938	-0.07017530059814453	0.9892509765625	0.010463899612426757	-0.04758509826660156	1.0221099853515625	0.01729509925842285	-0.04425389862060547	1.0154400024414063	0.022823699951171873	-0.041427501678466795	0.9865759887695312	-0.02168269920349121	-0.046095600128173826	0.982989013671875	0.005875889778137207	-0.031388099670410154	1.026969970703125	0.015087400436401367	-0.02778269958496094	1.0208099975585938	0.02393440055847168	-0.0225403995513916	0.9962109985351563	-0.01806920051574707	-0.021650899887084962	0.9877130126953125	0.0021411700248718264	-0.013307000160217285	1.02793994140625	0.016213600158691405	-0.011692700386047363	1.0208300170898437	0.02105030059814453	-0.005800690174102783	1.0031699829101564	-0.010144100189208985	-0.000783050000667572	0.9987849731445313	-0.022016799926757813	-0.02607710075378418	1.066449951171875
30	1.0	0.011203499794006347	-0.15210899353027343	1.0310400390625	0.0159975004196167	-0.12379499816894532	1.0284200439453124	0.005335440158843994	-0.093581298828125	1.038260009765625	-0.001839939951896667	-0.05297610092163086	1.0483900146484375	0.001496250033378601	-0.06360079956054687	1.0179600219726563	0.01807889938354492	-0.061002899169921875	1.0106699829101562	0.024333599090576172	-0.0626766014099121	0.9865490112304688	-0.01646969985961914	-0.07022709655761719	0.9893679809570313	0.010450599670410156	-0.047553199768066406	1.022219970703125	0.017208599090576173	-0.044251701354980466	1.0152100219726563	0.023042699813842774	-0.04148830032348633	0.9870960083007813	-0.021614599227905273	-0.04617449951171875	0.9830150146484375	0.006009769916534424	-0.031311500549316404	1.026760009765625	0.015086199760437012	-0.027772300720214842	1.02077001953125	0.023969999313354494	-0.02257740020751953	0.9962329711914063	-0.018070499420166017	-0.021725000381469725	0.9877219848632812	0.002212100028991699	-0.013325599670410157	1.0279300537109375	0.01626689910888672	-0.011694299697875976	1.0208499755859375	0.021045400619506837	-0.00581633996963501	1.00322998046875	-0.010087599754333496	-0.000857643008232116	0.9987570190429688	-0.022058700561523436	-0.026114500045776368	1.0663800048828125
31	1.0333333333333334	0.01061870002746582	-0.15221099853515624	1.030780029296875	0.015400099754333495	-0.12383000183105469	1.0283499755859375	0.004897339820861817	-0.09356269836425782	1.0382900390625	-0.0021022799015045163	-0.053089000701904296	1.048239990234375	0.001139389991760254	-0.06379050064086914	1.017739990234375	0.01782889938354492	-0.061113800048828125	1.0105399780273439	0.023936500549316408	-0.06283319854736329	0.9862150268554688	-0.016656999588012696	-0.07021009826660156	0.9891510009765625	0.010359800338745118	-0.04765750122070313	1.0218900146484375	0.017042699813842772	-0.04437910079956055	1.0151400146484375	0.022729400634765626	-0.0415077018737793	0.98643798828125	-0.02179520034790039	-0.04609960174560547	0.9828880004882813	0.005929599761962891	-0.031567399978637695	1.0263499755859375	0.014916199684143067	-0.027936100006103515	1.0206799926757812	0.023875600814819337	-0.02269420051574707	0.9961849975585938	-0.018109399795532225	-0.021648500442504885	0.9876370239257812	0.002157380104064941	-0.013411399841308593	1.028050048828125	0.01615279960632324	-0.011826600074768066	1.02077001953125	0.02096030044555664	-0.005931469917297363	1.0031799926757812	-0.010152899742126464	-0.000826978027820587	0.9987890014648437	-0.022166200637817383	-0.026169300079345703	1.06625
32	1.0666666666666667	0.010942999839782714	-0.15213600158691407	1.0309599609375	0.015614700317382813	-0.12368800354003906	1.028449951171875	0.004960229873657227	-0.09346520233154297	1.038260009765625	-0.0021009800434112547	-0.05289879989624023	1.04827001953125	0.001104310035705566	-0.06361460113525391	1.0176599731445313	0.017726600646972655	-0.060980899810791016	1.0103200073242187	0.024131799697875978	-0.06275270080566406	0.9864409790039063	-0.016558900833129882	-0.07017009735107421	0.989114990234375	0.010309200286865234	-0.047577598571777346	1.0218099975585937	0.01698509979248047	-0.04425419998168945	1.0151199951171874	0.022867300033569335	-0.04141619873046875	0.9868480224609375	-0.02178940010070801	-0.04605849838256836	0.982864990234375	0.00600579023361206	-0.031471900939941407	1.026	0.014839900016784669	-0.027805299758911134	1.0206599731445312	0.023841100692749022	-0.022575399398803712	0.9960750122070312	-0.018187000274658204	-0.021606899261474608	0.9876119995117187	0.0019840999841690063	-0.013319999694824218	1.0275699462890624	0.016091299057006837	-0.011733799934387208	1.020739990234375	0.020916799545288085	-0.005830090045928955	1.0028300170898437	-0.01025629997253418	-0.000743089020252227	0.9988209838867188	-0.022231000900268555	-0.026071399688720704	1.0662900390625
33	1.1	0.011156100273132324	-0.15199299621582033	1.0310999755859376	0.01585260009765625	-0.12365599822998047	1.0285	0.005157450199127197	-0.09346330261230469	1.0381600341796875	-0.001909890055656433	-0.05288840103149414	1.048199951171875	0.0013062000274658202	-0.06345800018310546	1.017530029296875	0.017970699310302735	-0.06071699905395508	1.0106099853515624	0.0243080997467041	-0.06239120101928711	0.9864299926757812	-0.01637579917907715	-0.069935302734375	0.9891179809570313	0.0103858003616333	-0.04735770034790039	1.0220900268554687	0.017274499893188477	-0.04401789855957031	1.01525	0.022892099380493164	-0.0411693000793457	0.9864619750976562	-0.0216156005859375	-0.04585340118408203	0.982885009765625	0.005874269962310791	-0.03128899955749512	1.0258599853515624	0.014937000274658203	-0.0275718994140625	1.0206900024414063	0.023945999145507813	-0.022326099395751954	0.9961220092773437	-0.018042699813842773	-0.02139229965209961	0.9876599731445312	0.0020695500373840332	-0.013025199890136719	1.0283299560546875	0.016209299087524415	-0.011505200386047363	1.02072998046875	0.020996799468994142	-0.005598810195922852	1.0030800170898437	-0.010123000144958497	-0.000583634972572326	0.998739990234375	-0.02214889907836914	-0.025970300674438476	1.06672998046875
